<mxfile host="app.diagrams.net" agent="Mozilla/5.0 (X11; Linux x86_64; rv:134.0) Gecko/20100101 Firefox/134.0" version="26.0.5">
  <diagram id="R2lEEEUBdFMjLlhIrx00" name="Page-1">
    <mxGraphModel grid="1" page="1" gridSize="10" guides="1" tooltips="1" connect="1" arrows="1" fold="1" pageScale="1" pageWidth="850" pageHeight="1100" math="0" shadow="0" extFonts="Permanent Marker^https://fonts.googleapis.com/css?family=Permanent+Marker">
      <root>
        <mxCell id="0" />
        <mxCell id="1" parent="0" />
        <mxCell id="ifYE25iAkMIjKwTkxsNk-1" value="Students" style="swimlane;childLayout=stackLayout;horizontal=1;startSize=50;horizontalStack=0;rounded=1;fontSize=14;fontStyle=0;strokeWidth=2;resizeParent=0;resizeLast=1;shadow=0;dashed=0;align=center;arcSize=4;whiteSpace=wrap;html=1;" vertex="1" parent="1">
          <mxGeometry x="320" y="360" width="160" height="160" as="geometry" />
        </mxCell>
        <mxCell id="ifYE25iAkMIjKwTkxsNk-2" value="&lt;div&gt;familyID&lt;br&gt;&lt;/div&gt;&lt;div&gt;studentName&lt;/div&gt;&lt;div&gt;dateStarted&lt;br&gt;&lt;/div&gt;" style="align=left;strokeColor=none;fillColor=none;spacingLeft=4;fontSize=12;verticalAlign=top;resizable=0;rotatable=0;part=1;html=1;" vertex="1" parent="ifYE25iAkMIjKwTkxsNk-1">
          <mxGeometry y="50" width="160" height="110" as="geometry" />
        </mxCell>
        <mxCell id="ifYE25iAkMIjKwTkxsNk-4" value="Instruments" style="swimlane;childLayout=stackLayout;horizontal=1;startSize=50;horizontalStack=0;rounded=1;fontSize=14;fontStyle=0;strokeWidth=2;resizeParent=0;resizeLast=1;shadow=0;dashed=0;align=center;arcSize=4;whiteSpace=wrap;html=1;" vertex="1" parent="1">
          <mxGeometry x="600" y="360" width="160" height="120" as="geometry" />
        </mxCell>
        <mxCell id="4gVw0sIIFrjS3S7XppMw-7" value="&lt;div&gt;instrumentID&lt;/div&gt;&lt;div&gt;InsName&lt;br&gt;&lt;/div&gt;&lt;div&gt;&lt;br&gt;&lt;/div&gt;" style="align=left;strokeColor=none;fillColor=none;spacingLeft=4;fontSize=12;verticalAlign=top;resizable=0;rotatable=0;part=1;html=1;" vertex="1" parent="ifYE25iAkMIjKwTkxsNk-4">
          <mxGeometry y="50" width="160" height="70" as="geometry" />
        </mxCell>
        <mxCell id="ifYE25iAkMIjKwTkxsNk-6" value="Lessons" style="swimlane;childLayout=stackLayout;horizontal=1;startSize=50;horizontalStack=0;rounded=1;fontSize=14;fontStyle=0;strokeWidth=2;resizeParent=0;resizeLast=1;shadow=0;dashed=0;align=center;arcSize=4;whiteSpace=wrap;html=1;" vertex="1" parent="1">
          <mxGeometry x="320" y="80" width="160" height="150" as="geometry" />
        </mxCell>
        <mxCell id="ifYE25iAkMIjKwTkxsNk-7" value="&lt;div&gt;familyID&lt;/div&gt;&lt;div&gt;studentName&lt;/div&gt;&lt;div&gt;InstrumentID&lt;/div&gt;&lt;div&gt;date&lt;/div&gt;&lt;div&gt;comments&lt;br&gt;&lt;/div&gt;" style="align=left;strokeColor=none;fillColor=none;spacingLeft=4;fontSize=12;verticalAlign=top;resizable=0;rotatable=0;part=1;html=1;" vertex="1" parent="ifYE25iAkMIjKwTkxsNk-6">
          <mxGeometry y="50" width="160" height="100" as="geometry" />
        </mxCell>
        <mxCell id="ifYE25iAkMIjKwTkxsNk-8" value="Payments" style="swimlane;childLayout=stackLayout;horizontal=1;startSize=50;horizontalStack=0;rounded=1;fontSize=14;fontStyle=0;strokeWidth=2;resizeParent=0;resizeLast=1;shadow=0;dashed=0;align=center;arcSize=4;whiteSpace=wrap;html=1;" vertex="1" parent="1">
          <mxGeometry x="40" y="80" width="170" height="160" as="geometry" />
        </mxCell>
        <mxCell id="ifYE25iAkMIjKwTkxsNk-9" value="&lt;div&gt;familyID&lt;/div&gt;&lt;div&gt;date&lt;/div&gt;&lt;div&gt;amount&lt;/div&gt;&lt;div&gt;method&lt;/div&gt;&lt;div&gt;for&lt;br&gt;&lt;/div&gt;" style="align=left;strokeColor=none;fillColor=none;spacingLeft=4;fontSize=12;verticalAlign=top;resizable=0;rotatable=0;part=1;html=1;" vertex="1" parent="ifYE25iAkMIjKwTkxsNk-8">
          <mxGeometry y="50" width="170" height="110" as="geometry" />
        </mxCell>
        <mxCell id="ifYE25iAkMIjKwTkxsNk-10" value="Pieces" style="swimlane;childLayout=stackLayout;horizontal=1;startSize=50;horizontalStack=0;rounded=1;fontSize=14;fontStyle=0;strokeWidth=2;resizeParent=0;resizeLast=1;shadow=0;dashed=0;align=center;arcSize=4;whiteSpace=wrap;html=1;" vertex="1" parent="1">
          <mxGeometry x="600" y="640" width="160" height="120" as="geometry" />
        </mxCell>
        <mxCell id="ifYE25iAkMIjKwTkxsNk-11" value="&lt;div&gt;composerID&lt;br&gt;&lt;/div&gt;&lt;div&gt;title&lt;/div&gt;&lt;div&gt;&lt;br&gt;&lt;/div&gt;" style="align=left;strokeColor=none;fillColor=none;spacingLeft=4;fontSize=12;verticalAlign=top;resizable=0;rotatable=0;part=1;html=1;" vertex="1" parent="ifYE25iAkMIjKwTkxsNk-10">
          <mxGeometry y="50" width="160" height="70" as="geometry" />
        </mxCell>
        <mxCell id="ifYE25iAkMIjKwTkxsNk-12" value="Composers" style="swimlane;childLayout=stackLayout;horizontal=1;startSize=50;horizontalStack=0;rounded=1;fontSize=14;fontStyle=0;strokeWidth=2;resizeParent=0;resizeLast=1;shadow=0;dashed=0;align=center;arcSize=4;whiteSpace=wrap;html=1;" vertex="1" parent="1">
          <mxGeometry x="600" y="880" width="160" height="120" as="geometry" />
        </mxCell>
        <mxCell id="ifYE25iAkMIjKwTkxsNk-13" value="&lt;div&gt;composerID&lt;/div&gt;&lt;div&gt;composerName&lt;/div&gt;" style="align=left;strokeColor=none;fillColor=none;spacingLeft=4;fontSize=12;verticalAlign=top;resizable=0;rotatable=0;part=1;html=1;" vertex="1" parent="ifYE25iAkMIjKwTkxsNk-12">
          <mxGeometry y="50" width="160" height="70" as="geometry" />
        </mxCell>
        <mxCell id="ifYE25iAkMIjKwTkxsNk-14" value="StudentAssignedPieces" style="swimlane;childLayout=stackLayout;horizontal=1;startSize=50;horizontalStack=0;rounded=1;fontSize=14;fontStyle=0;strokeWidth=2;resizeParent=0;resizeLast=1;shadow=0;dashed=0;align=center;arcSize=4;whiteSpace=wrap;html=1;" vertex="1" parent="1">
          <mxGeometry x="320" y="640" width="160" height="120" as="geometry" />
        </mxCell>
        <mxCell id="ifYE25iAkMIjKwTkxsNk-15" value="&lt;div&gt;pieceID&lt;/div&gt;&lt;div&gt;status&lt;/div&gt;&lt;div&gt;dateAssigned&lt;br&gt;&lt;/div&gt;" style="align=left;strokeColor=none;fillColor=none;spacingLeft=4;fontSize=12;verticalAlign=top;resizable=0;rotatable=0;part=1;html=1;" vertex="1" parent="ifYE25iAkMIjKwTkxsNk-14">
          <mxGeometry y="50" width="160" height="70" as="geometry" />
        </mxCell>
        <mxCell id="ifYE25iAkMIjKwTkxsNk-16" value="" style="fontSize=12;html=1;endArrow=ERzeroToMany;startArrow=ERmandOne;rounded=0;entryX=0.5;entryY=1;entryDx=0;entryDy=0;" edge="1" parent="1" source="ifYE25iAkMIjKwTkxsNk-1" target="ifYE25iAkMIjKwTkxsNk-6">
          <mxGeometry width="100" height="100" relative="1" as="geometry">
            <mxPoint x="70" y="220.5" as="sourcePoint" />
            <mxPoint x="390" y="220" as="targetPoint" />
          </mxGeometry>
        </mxCell>
        <mxCell id="ifYE25iAkMIjKwTkxsNk-22" value="" style="fontSize=12;html=1;endArrow=ERzeroToMany;endFill=1;startArrow=ERzeroToMany;rounded=0;exitX=1;exitY=0.5;exitDx=0;exitDy=0;" edge="1" parent="1" source="ifYE25iAkMIjKwTkxsNk-1">
          <mxGeometry width="100" height="100" relative="1" as="geometry">
            <mxPoint x="520" y="470" as="sourcePoint" />
            <mxPoint x="600" y="440" as="targetPoint" />
          </mxGeometry>
        </mxCell>
        <mxCell id="ifYE25iAkMIjKwTkxsNk-24" value="" style="fontSize=12;html=1;endArrow=ERzeroToMany;startArrow=ERmandOne;rounded=0;entryX=0;entryY=0.5;entryDx=0;entryDy=0;exitX=1;exitY=0.333;exitDx=0;exitDy=0;exitPerimeter=0;" edge="1" parent="1" source="4gVw0sIIFrjS3S7XppMw-2" target="ifYE25iAkMIjKwTkxsNk-1">
          <mxGeometry width="100" height="100" relative="1" as="geometry">
            <mxPoint x="250" y="490" as="sourcePoint" />
            <mxPoint x="280" y="490" as="targetPoint" />
          </mxGeometry>
        </mxCell>
        <mxCell id="ifYE25iAkMIjKwTkxsNk-25" value="" style="fontSize=12;html=1;endArrow=ERzeroToMany;startArrow=ERmandOne;rounded=0;" edge="1" parent="1">
          <mxGeometry width="100" height="100" relative="1" as="geometry">
            <mxPoint x="600" y="720" as="sourcePoint" />
            <mxPoint x="480" y="720" as="targetPoint" />
          </mxGeometry>
        </mxCell>
        <mxCell id="ifYE25iAkMIjKwTkxsNk-27" value="" style="fontSize=12;html=1;endArrow=ERzeroToMany;startArrow=ERmandOne;rounded=0;exitX=0.5;exitY=0;exitDx=0;exitDy=0;entryX=0.5;entryY=1;entryDx=0;entryDy=0;" edge="1" parent="1" source="ifYE25iAkMIjKwTkxsNk-12" target="ifYE25iAkMIjKwTkxsNk-10">
          <mxGeometry width="100" height="100" relative="1" as="geometry">
            <mxPoint x="680" y="740" as="sourcePoint" />
            <mxPoint x="600" y="880" as="targetPoint" />
          </mxGeometry>
        </mxCell>
        <mxCell id="ifYE25iAkMIjKwTkxsNk-28" value="" style="fontSize=12;html=1;endArrow=ERzeroToMany;startArrow=ERmandOne;rounded=0;entryX=0.5;entryY=0;entryDx=0;entryDy=0;exitX=0.5;exitY=1;exitDx=0;exitDy=0;" edge="1" parent="1" source="ifYE25iAkMIjKwTkxsNk-1" target="ifYE25iAkMIjKwTkxsNk-14">
          <mxGeometry width="100" height="100" relative="1" as="geometry">
            <mxPoint x="580" y="670" as="sourcePoint" />
            <mxPoint x="580" y="560" as="targetPoint" />
          </mxGeometry>
        </mxCell>
        <mxCell id="4gVw0sIIFrjS3S7XppMw-1" value="Families" style="swimlane;childLayout=stackLayout;horizontal=1;startSize=50;horizontalStack=0;rounded=1;fontSize=14;fontStyle=0;strokeWidth=2;resizeParent=0;resizeLast=1;shadow=0;dashed=0;align=center;arcSize=4;whiteSpace=wrap;html=1;" vertex="1" parent="1">
          <mxGeometry x="40" y="360" width="160" height="140" as="geometry" />
        </mxCell>
        <mxCell id="4gVw0sIIFrjS3S7XppMw-2" value="&lt;div&gt;familyID&lt;/div&gt;&lt;div&gt;parentName&lt;/div&gt;&lt;div&gt;address&lt;/div&gt;&lt;div&gt;phone&lt;/div&gt;&lt;div&gt;email&lt;br&gt;&lt;/div&gt;" style="align=left;strokeColor=none;fillColor=none;spacingLeft=4;fontSize=12;verticalAlign=top;resizable=0;rotatable=0;part=1;html=1;" vertex="1" parent="4gVw0sIIFrjS3S7XppMw-1">
          <mxGeometry y="50" width="160" height="90" as="geometry" />
        </mxCell>
        <mxCell id="4gVw0sIIFrjS3S7XppMw-4" value="" style="fontSize=12;html=1;endArrow=ERzeroToMany;startArrow=ERmandOne;rounded=0;entryX=0.459;entryY=1;entryDx=0;entryDy=0;entryPerimeter=0;exitX=0.5;exitY=0;exitDx=0;exitDy=0;" edge="1" parent="1" source="4gVw0sIIFrjS3S7XppMw-1" target="ifYE25iAkMIjKwTkxsNk-9">
          <mxGeometry width="100" height="100" relative="1" as="geometry">
            <mxPoint x="170" y="320" as="sourcePoint" />
            <mxPoint x="120" y="247" as="targetPoint" />
          </mxGeometry>
        </mxCell>
        <mxCell id="4gVw0sIIFrjS3S7XppMw-9" value="" style="fontSize=12;html=1;endArrow=ERzeroToMany;startArrow=ERmandOne;rounded=0;entryX=0.5;entryY=0;entryDx=0;entryDy=0;exitX=0.5;exitY=1;exitDx=0;exitDy=0;" edge="1" parent="1" source="ifYE25iAkMIjKwTkxsNk-4" target="ifYE25iAkMIjKwTkxsNk-10">
          <mxGeometry width="100" height="100" relative="1" as="geometry">
            <mxPoint x="610" y="610" as="sourcePoint" />
            <mxPoint x="710" y="510" as="targetPoint" />
          </mxGeometry>
        </mxCell>
        <mxCell id="4gVw0sIIFrjS3S7XppMw-10" value="" style="edgeStyle=orthogonalEdgeStyle;fontSize=12;html=1;endArrow=ERzeroToMany;startArrow=ERmandOne;rounded=0;exitX=0.5;exitY=0;exitDx=0;exitDy=0;entryX=0.994;entryY=0.414;entryDx=0;entryDy=0;entryPerimeter=0;" edge="1" parent="1" source="ifYE25iAkMIjKwTkxsNk-4" target="ifYE25iAkMIjKwTkxsNk-7">
          <mxGeometry width="100" height="100" relative="1" as="geometry">
            <mxPoint x="680" y="240" as="sourcePoint" />
            <mxPoint x="590" y="70" as="targetPoint" />
            <Array as="points">
              <mxPoint x="680" y="160" />
              <mxPoint x="479" y="160" />
            </Array>
          </mxGeometry>
        </mxCell>
      </root>
    </mxGraphModel>
  </diagram>
</mxfile>
